<svg fill="none" height="270" width="600" xmlns="http://www.w3.org/2000/svg"><path d="m0 0h600v270h-600z" fill="#fff"/><g stroke="#000"><rect height="178" rx="6" stroke-width="2" width="16" x="144" y="46"/><rect height="178" rx="6" stroke-width="2" width="16" x="440" y="46"/><path d="m161 153h278" stroke-width="4"/><rect fill="#f7931a" height="12" rx="4" stroke-width="2" width="8" x="167" y="146"/><rect fill="#f7931a" height="12" rx="4" stroke-width="2" width="8" x="183" y="146"/><rect fill="#f7931a" height="12" rx="4" stroke-width="2" width="8" x="199" y="146"/><rect fill="#f7931a" height="12" rx="4" stroke-width="2" width="8" x="215" y="146"/><rect fill="#f7931a" height="12" rx="4" stroke-width="2" width="8" x="231" y="146"/><rect fill="#f7931a" height="12" rx="4" stroke-width="2" width="8" x="247" y="146"/><rect fill="#fff" height="12" rx="4" stroke-width="2" width="8" x="409" y="146"/><rect fill="#fff" height="12" rx="4" stroke-width="2" width="8" x="425" y="146"/><path d="m161 193h278" stroke-width="4"/><rect fill="#f7931a" height="12" rx="4" stroke-width="2" width="8" x="167" y="186"/><rect fill="#f7931a" height="12" rx="4" stroke-width="2" width="8" x="183" y="186"/><rect fill="#f7931a" height="12" rx="4" stroke-width="2" width="8" x="199" y="186"/><rect fill="#f7931a" height="12" rx="4" stroke-width="2" width="8" x="215" y="186"/><rect fill="#f7931a" height="12" rx="4" stroke-width="2" width="8" x="231" y="186"/><rect fill="#f7931a" height="12" rx="4" stroke-width="2" width="8" x="247" y="186"/><rect fill="#f7931a" height="12" rx="4" stroke-width="2" width="8" x="263" y="186"/><rect fill="#f7931a" height="12" rx="4" stroke-width="2" width="8" x="279" y="186"/><path d="m161 113h278" stroke-width="4"/><rect fill="#f7931a" height="12" rx="4" stroke-width="2" width="8" x="167" y="106"/><rect fill="#f7931a" height="12" rx="4" stroke-width="2" width="8" x="183" y="106"/><rect fill="#f7931a" height="12" rx="4" stroke-width="2" width="8" x="199" y="106"/><rect fill="#fff" height="12" rx="4" stroke-width="2" width="8" x="361" y="106"/><rect fill="#fff" height="12" rx="4" stroke-width="2" width="8" x="377" y="106"/><rect fill="#fff" height="12" rx="4" stroke-width="2" width="8" x="393" y="106"/><rect fill="#fff" height="12" rx="4" stroke-width="2" width="8" x="409" y="106"/><rect fill="#fff" height="12" rx="4" stroke-width="2" width="8" x="425" y="106"/><path d="m161 73h278" stroke-width="4"/><rect fill="#f7931a" height="12" rx="4" stroke-width="2" width="8" x="167" y="66"/><rect fill="#f7931a" height="12" rx="4" stroke-width="2" width="8" x="183" y="66"/><rect fill="#f7931a" height="12" rx="4" stroke-width="2" width="8" x="199" y="66"/><rect fill="#f7931a" height="12" rx="4" stroke-width="2" width="8" x="215" y="66"/><rect fill="#fff" height="12" rx="4" stroke-width="2" width="8" x="377" y="66"/><rect fill="#fff" height="12" rx="4" stroke-width="2" width="8" x="393" y="66"/><rect fill="#fff" height="12" rx="4" stroke-width="2" width="8" x="409" y="66"/><rect fill="#fff" height="12" rx="4" stroke-width="2" width="8" x="425" y="66"/></g></svg>