<svg fill="none" height="400" width="1336" xmlns="http://www.w3.org/2000/svg"><path d="m0 0h1336v400h-1336z" fill="#fff"/><g stroke="#000"><rect height="178" rx="6" stroke-width="2" width="16" x="511" y="111"/><rect height="178" rx="6" stroke-width="2" width="16" x="807" y="111"/><path d="m528 218h278" stroke-width="4"/><rect fill="#f7931a" height="12" rx="4" stroke-width="2" width="8" x="534" y="211"/><rect fill="#f7931a" height="12" rx="4" stroke-width="2" width="8" x="550" y="211"/><rect fill="#f7931a" height="12" rx="4" stroke-width="2" width="8" x="566" y="211"/><rect fill="#f7931a" height="12" rx="4" stroke-width="2" width="8" x="582" y="211"/><rect fill="#f7931a" height="12" rx="4" stroke-width="2" width="8" x="598" y="211"/><rect fill="#f7931a" height="12" rx="4" stroke-width="2" width="8" x="614" y="211"/><rect fill="#fff" height="12" rx="4" stroke-width="2" width="8" x="776" y="211"/><rect fill="#fff" height="12" rx="4" stroke-width="2" width="8" x="792" y="211"/><path d="m528 258h278" stroke-width="4"/><rect fill="#f7931a" height="12" rx="4" stroke-width="2" width="8" x="534" y="251"/><rect fill="#f7931a" height="12" rx="4" stroke-width="2" width="8" x="550" y="251"/><rect fill="#f7931a" height="12" rx="4" stroke-width="2" width="8" x="566" y="251"/><rect fill="#f7931a" height="12" rx="4" stroke-width="2" width="8" x="582" y="251"/><rect fill="#f7931a" height="12" rx="4" stroke-width="2" width="8" x="598" y="251"/><rect fill="#f7931a" height="12" rx="4" stroke-width="2" width="8" x="614" y="251"/><rect fill="#f7931a" height="12" rx="4" stroke-width="2" width="8" x="630" y="251"/><rect fill="#f7931a" height="12" rx="4" stroke-width="2" width="8" x="646" y="251"/><path d="m528 178h278" stroke-width="4"/><rect fill="#f7931a" height="12" rx="4" stroke-width="2" width="8" x="534" y="171"/><rect fill="#f7931a" height="12" rx="4" stroke-width="2" width="8" x="550" y="171"/><rect fill="#f7931a" height="12" rx="4" stroke-width="2" width="8" x="566" y="171"/><rect fill="#fff" height="12" rx="4" stroke-width="2" width="8" x="728" y="171"/><rect fill="#fff" height="12" rx="4" stroke-width="2" width="8" x="744" y="171"/><rect fill="#fff" height="12" rx="4" stroke-width="2" width="8" x="760" y="171"/><rect fill="#fff" height="12" rx="4" stroke-width="2" width="8" x="776" y="171"/><rect fill="#fff" height="12" rx="4" stroke-width="2" width="8" x="792" y="171"/><path d="m528 138h278" stroke-width="4"/><rect fill="#f7931a" height="12" rx="4" stroke-width="2" width="8" x="534" y="131"/><rect fill="#f7931a" height="12" rx="4" stroke-width="2" width="8" x="550" y="131"/><rect fill="#f7931a" height="12" rx="4" stroke-width="2" width="8" x="566" y="131"/><rect fill="#f7931a" height="12" rx="4" stroke-width="2" width="8" x="582" y="131"/><rect fill="#fff" height="12" rx="4" stroke-width="2" width="8" x="744" y="131"/><rect fill="#fff" height="12" rx="4" stroke-width="2" width="8" x="760" y="131"/><rect fill="#fff" height="12" rx="4" stroke-width="2" width="8" x="776" y="131"/><rect fill="#fff" height="12" rx="4" stroke-width="2" width="8" x="792" y="131"/></g></svg>