<svg width="23" height="22" viewBox="0 0 23 22" fill="none" xmlns="http://www.w3.org/2000/svg">
<path d="M14 9C13.17 9 12.5 8.33 12.5 7.5V2.5C12.5 1.67 13.17 1 14 1C14.83 1 15.5 1.67 15.5 2.5V7.5C15.5 8.33 14.83 9 14 9Z" stroke="white" stroke-width="2" stroke-linecap="round" stroke-linejoin="round"/>
<path d="M20 9H18.5V7.5C18.5 6.67 19.17 6 20 6C20.83 6 21.5 6.67 21.5 7.5C21.5 8.33 20.83 9 20 9Z" stroke="white" stroke-width="2" stroke-linecap="round" stroke-linejoin="round"/>
<path d="M9 13C9.83 13 10.5 13.67 10.5 14.5V19.5C10.5 20.33 9.83 21 9 21C8.17 21 7.5 20.33 7.5 19.5V14.5C7.5 13.67 8.17 13 9 13Z" stroke="white" stroke-width="2" stroke-linecap="round" stroke-linejoin="round"/>
<path d="M3 13H4.5V14.5C4.5 15.33 3.83 16 3 16C2.17 16 1.5 15.33 1.5 14.5C1.5 13.67 2.17 13 3 13Z" stroke="white" stroke-width="2" stroke-linecap="round" stroke-linejoin="round"/>
<path d="M13.5 13.5C13.5 12.67 14.17 12 15 12H20C20.83 12 21.5 12.67 21.5 13.5C21.5 14.33 20.83 15 20 15H15C14.17 15 13.5 14.33 13.5 13.5Z" stroke="white" stroke-width="2" stroke-linecap="round" stroke-linejoin="round"/>
<path d="M15 18H13.5V19.5C13.5 20.33 14.17 21 15 21C15.83 21 16.5 20.33 16.5 19.5C16.5 18.67 15.83 18 15 18Z" stroke="white" stroke-width="2" stroke-linecap="round" stroke-linejoin="round"/>
<path d="M9.5 8.5C9.5 7.67 8.83 7 8 7H3C2.17 7 1.5 7.67 1.5 8.5C1.5 9.33 2.17 10 3 10H8C8.83 10 9.5 9.33 9.5 8.5Z" stroke="white" stroke-width="2" stroke-linecap="round" stroke-linejoin="round"/>
<path d="M8 4H9.5V2.5C9.5 1.67 8.83 1 8 1C7.17 1 6.5 1.67 6.5 2.5C6.5 3.33 7.17 4 8 4Z" stroke="white" stroke-width="2" stroke-linecap="round" stroke-linejoin="round"/>
</svg>
