<svg width="30" height="31" viewBox="0 0 30 31" fill="none" xmlns="http://www.w3.org/2000/svg">
<path fill-rule="evenodd" clip-rule="evenodd" d="M24 15.5C24 20.4706 19.9706 24.5 15 24.5C10.0294 24.5 6 20.4706 6 15.5C6 10.5294 10.0294 6.5 15 6.5C19.9706 6.5 24 10.5294 24 15.5ZM14.5002 15.4851C14.4962 15.618 14.545 15.7521 14.6464 15.8535L17.4748 18.6819C17.6701 18.8772 17.9867 18.8772 18.1819 18.6819C18.3772 18.4867 18.3772 18.1701 18.1819 17.9748L15.4999 15.2929V10.47C15.4999 10.1938 15.2761 9.96997 14.9999 9.96997C14.7238 9.96997 14.4999 10.1938 14.4999 10.47V15.47C14.4999 15.475 14.5 15.4801 14.5002 15.4851Z" fill="black"/>
</svg>
