<svg width="16" height="14" viewBox="0 0 16 14" fill="none" xmlns="http://www.w3.org/2000/svg">
<path d="M11.3333 13V11.6667C11.3333 10.9594 11.0524 10.2811 10.5523 9.78105C10.0522 9.28095 9.37392 9 8.66667 9H3.33334C2.62609 9 1.94782 9.28095 1.44772 9.78105C0.947623 10.2811 0.666672 10.9594 0.666672 11.6667V13M15.3333 13V11.6667C15.3329 11.0758 15.1362 10.5018 14.7742 10.0349C14.4123 9.56791 13.9054 9.23438 13.3333 9.08667M10.6667 1.08667C11.2403 1.23353 11.7487 1.56713 12.1118 2.03487C12.4748 2.50261 12.6719 3.07789 12.6719 3.67C12.6719 4.26211 12.4748 4.83739 12.1118 5.30513C11.7487 5.77287 11.2403 6.10647 10.6667 6.25333M8.66667 3.66667C8.66667 5.13943 7.47276 6.33333 6.00001 6.33333C4.52725 6.33333 3.33334 5.13943 3.33334 3.66667C3.33334 2.19391 4.52725 1 6.00001 1C7.47276 1 8.66667 2.19391 8.66667 3.66667Z" stroke="#475569" stroke-width="1.33333" stroke-linecap="round" stroke-linejoin="round"/>
</svg>
