<svg width="20" height="21" viewBox="0 0 20 21" fill="none" xmlns="http://www.w3.org/2000/svg">
<g clip-path="url(#clip0_75_2712)">
<path d="M17.57 20.5H2.43C1.09 20.5 0 19.0875 0 17.325V3.6625C0 1.9125 1.09 0.5 2.43 0.5H17.58C18.91 0.5 20 1.9125 20 3.6625V17.325C20 19.0875 18.91 20.5 17.57 20.5Z" fill="#EB2B2B"/>
<path d="M7.70328 6.81296C7.37261 6.66581 7 6.90784 7 7.26977V13.6507C7 14.0318 7.40937 14.2728 7.74264 14.0878L14.1235 10.5464C14.4842 10.3463 14.461 9.82015 14.0842 9.65245L7.70328 6.81296Z" fill="white"/>
</g>
<defs>
<clipPath id="clip0_75_2712">
<rect width="20" height="20" fill="white" transform="translate(0 0.5)"/>
</clipPath>
</defs>
</svg>
